<svg width="808" height="155" viewBox="0 0 808 155" fill="none" xmlns="http://www.w3.org/2000/svg">
<path d="M58.9535 3.18567C58.2884 3.42806 48.3419 7.91233 30.0814 16.2143C21.1023 20.3047 10.9744 24.9101 7.55814 26.4554C4.17209 28.0007 1.05814 29.5762 0.695349 29.9398L0 30.6064V87.7808V144.955L0.846512 146.319C2.84186 149.44 5.98605 151.591 9.85581 152.53C12.3953 153.136 17.2326 153.166 19.8023 152.56C20.8 152.318 39.8163 148.258 62.0674 143.531C98.4372 135.805 102.609 134.866 103.274 134.229L104 133.472V76.3884V19.3048L103.244 18.5776C102.73 18.0322 102.186 17.8201 101.37 17.8201C100.735 17.8201 96.8047 18.6988 92.6023 19.729L84.9837 21.6378L84.893 14.0934L84.8023 6.54887L83.9558 5.82169C83.5023 5.4278 82.7767 5.09451 82.414 5.09451C82.0209 5.09451 77.3953 6.85186 72.1349 9.0334C66.8442 11.1846 62.4907 12.9723 62.4 12.9723C62.3395 12.9723 62.2791 11.2755 62.2791 9.18489C62.2791 4.85212 61.9767 3.85225 60.4349 3.30686C59.8907 3.12507 59.4674 2.97357 59.4372 3.00387C59.407 3.00387 59.1953 3.09477 58.9535 3.18567ZM56.8372 12.7905V15.3356L54.9628 16.0931C53.9047 16.5173 51.0326 17.699 48.5233 18.7291C46.0442 19.7593 41.8116 21.4863 39.1512 22.5771C36.4907 23.6376 32.893 25.1222 31.1395 25.8494C27.4814 27.3947 12.9093 33.3636 10.8535 34.1817L9.43256 34.7574L8.28372 33.7272C7.6186 33.1818 7.16512 32.6667 7.25581 32.5758C7.34651 32.5152 9.1907 31.6668 11.3372 30.6973C13.514 29.7277 16.2349 28.4854 17.4442 27.9401C18.6233 27.3644 20.8 26.3948 22.2814 25.7282C23.7326 25.0919 25.9093 24.1224 27.0581 23.577C28.2372 23.0316 30.4744 22.0317 32.0465 21.3045C33.6186 20.5774 35.886 19.5775 37.0349 19.0321C38.214 18.4867 40.5721 17.4263 42.3256 16.6082C47.7372 14.1843 49.6116 13.3056 52.907 11.7906C54.6605 10.9725 56.2628 10.2757 56.4744 10.2757C56.7465 10.2454 56.8372 10.9422 56.8372 12.7905ZM79.5116 17.5172V22.9407L78.393 23.2437C77.7581 23.4255 73.3744 24.5163 68.6279 25.6676C59.4372 27.9401 35.7047 33.7878 31.4419 34.8483C30.0209 35.1815 28.5093 35.6663 28.086 35.8784C25.8791 36.9692 18.1395 38.2721 17.7465 37.6055C17.6256 37.4237 19.0767 36.6662 21.1023 35.8481C30.293 32.091 38.607 28.6672 39.1512 28.4248C39.4837 28.2733 47.6465 24.9404 57.2907 20.9713C66.9349 17.0324 75.7023 13.4268 76.7907 12.942C77.8791 12.4875 78.9372 12.0936 79.1488 12.0936C79.4209 12.0633 79.5116 13.3359 79.5116 17.5172ZM98.5581 77.0246C98.5581 127.382 98.5279 130.2 98.0442 130.351C97.7419 130.442 95.4744 130.927 92.9651 131.442C90.486 131.957 87.5535 132.563 86.4651 132.805C85.3767 133.048 80.9023 134.017 76.4884 134.926C72.0744 135.866 67.6 136.805 66.5116 137.047C64.5465 137.502 58.0163 138.865 49.8837 140.562C47.4651 141.047 44.6233 141.653 43.5349 141.895C42.4465 142.137 37.9721 143.107 33.5581 144.016C29.1442 144.955 24.0953 146.046 22.3116 146.44C16.5674 147.773 14.9953 147.955 12.486 147.561C9.88605 147.137 7.64884 146.046 6.3186 144.561L5.44186 143.531V91.144C5.44186 62.2993 5.50233 38.7265 5.59302 38.7265C5.65349 38.7265 6.43953 39.181 7.31628 39.7264C9.34186 41.0293 12.3349 42.2109 14.6326 42.6351C18.8953 43.4229 24.8209 42.8775 29.0233 41.302C30.1116 40.8778 32.3488 40.2112 34.0116 39.787C37.3372 38.9689 62.5814 32.7273 76.3372 29.3641C81.1744 28.1522 88.0372 26.4554 91.6047 25.5767C95.1721 24.6678 98.1953 23.9103 98.3465 23.9103C98.4674 23.88 98.5581 47.786 98.5581 77.0246Z" fill="#4876EF"/>
<path d="M80.3619 49.5733C77.9238 50.1839 64.5143 53.3894 49.2762 57.0224C44.1562 58.213 39.6762 59.3731 39.3105 59.5868C38.9143 59.77 38.4876 60.1974 38.3048 60.5332C38.1219 60.8996 38 67.4939 38 79.3087V97.5041L38.7619 98.2368C39.2495 98.7558 39.8286 99 40.499 99C41.0476 99 44.461 98.2978 48.0571 97.4735C51.6533 96.6187 56.4076 95.5197 58.5714 95.0312C60.7657 94.5427 65.5505 93.4437 69.2381 92.5889C72.9257 91.7341 76.8267 90.8487 77.9238 90.6045C83.1048 89.4444 84.72 88.9559 85.36 88.3453C86 87.6737 86 87.6737 86 69.0509V50.3976L85.1467 49.6649C84.141 48.81 83.44 48.7795 80.3619 49.5733ZM80.6667 69.8141C80.6667 83.3385 80.6362 84.3155 80.1486 84.4681C79.8438 84.5597 77.4667 85.1092 74.8762 85.6893C72.2857 86.2999 68.019 87.2463 65.4286 87.8569C62.8381 88.4674 58.6629 89.4138 56.1333 89.9939C53.6343 90.5739 49.7943 91.4593 47.6305 91.9783C45.4667 92.4973 43.6686 92.8636 43.6076 92.8331C43.4857 92.6805 43.4552 88.5285 43.4552 75.7673L43.4857 63.983L45.7105 63.4946C47.8133 63.0061 54.5181 61.4186 71.3714 57.3277C75.7295 56.2592 79.6 55.4043 79.9962 55.3738L80.6667 55.3433V69.8141Z" fill="#B4C0D3"/>
<path d="M16.9667 52.8699L16 53.7399V95.4963V137.253L16.9667 138.123C18.3 139.292 19.7 139.292 21.0333 138.123L22 137.253V95.4963V53.7399L21.0333 52.8699C20.3667 52.27 19.7333 52 19 52C18.2667 52 17.6333 52.27 16.9667 52.8699Z" fill="#00D3AB"/>
<path d="M159.045 124V30.9091H197.864C204.833 30.9091 210.667 31.8939 215.364 33.8636C220.091 35.8333 223.636 38.5909 226 42.1364C228.394 45.6818 229.591 49.7879 229.591 54.4545C229.591 58 228.848 61.1667 227.364 63.9545C225.879 66.7121 223.833 69 221.227 70.8182C218.621 72.6364 215.606 73.9091 212.182 74.6364V75.5455C215.939 75.7273 219.409 76.7424 222.591 78.5909C225.803 80.4394 228.379 83.0152 230.318 86.3182C232.258 89.5909 233.227 93.4697 233.227 97.9545C233.227 102.955 231.955 107.424 229.409 111.364C226.864 115.273 223.182 118.364 218.364 120.636C213.545 122.879 207.697 124 200.818 124H159.045ZM181.545 105.864H195.455C200.333 105.864 203.924 104.939 206.227 103.091C208.561 101.242 209.727 98.6667 209.727 95.3636C209.727 92.9697 209.167 90.9091 208.045 89.1818C206.924 87.4242 205.333 86.0758 203.273 85.1364C201.212 84.1667 198.742 83.6818 195.864 83.6818H181.545V105.864ZM181.545 69.1818H194C196.455 69.1818 198.636 68.7727 200.545 67.9545C202.455 67.1364 203.939 65.9545 205 64.4091C206.091 62.8636 206.636 61 206.636 58.8182C206.636 55.697 205.53 53.2424 203.318 51.4545C201.106 49.6667 198.121 48.7727 194.364 48.7727H181.545V69.1818ZM276.636 125.318C269.303 125.318 263 123.818 257.727 120.818C252.485 117.788 248.439 113.576 245.591 108.182C242.773 102.758 241.364 96.4697 241.364 89.3182C241.364 82.1364 242.773 75.8485 245.591 70.4545C248.439 65.0303 252.485 60.8182 257.727 57.8182C263 54.7879 269.303 53.2727 276.636 53.2727C283.97 53.2727 290.258 54.7879 295.5 57.8182C300.773 60.8182 304.818 65.0303 307.636 70.4545C310.485 75.8485 311.909 82.1364 311.909 89.3182C311.909 96.4697 310.485 102.758 307.636 108.182C304.818 113.576 300.773 117.788 295.5 120.818C290.258 123.818 283.97 125.318 276.636 125.318ZM276.773 108.545C279.439 108.545 281.697 107.727 283.545 106.091C285.394 104.455 286.803 102.182 287.773 99.2727C288.773 96.3636 289.273 93 289.273 89.1818C289.273 85.303 288.773 81.9091 287.773 79C286.803 76.0909 285.394 73.8182 283.545 72.1818C281.697 70.5455 279.439 69.7273 276.773 69.7273C274.015 69.7273 271.682 70.5455 269.773 72.1818C267.894 73.8182 266.455 76.0909 265.455 79C264.485 81.9091 264 85.303 264 89.1818C264 93 264.485 96.3636 265.455 99.2727C266.455 102.182 267.894 104.455 269.773 106.091C271.682 107.727 274.015 108.545 276.773 108.545ZM355.886 125.318C348.553 125.318 342.25 123.818 336.977 120.818C331.735 117.788 327.689 113.576 324.841 108.182C322.023 102.758 320.614 96.4697 320.614 89.3182C320.614 82.1364 322.023 75.8485 324.841 70.4545C327.689 65.0303 331.735 60.8182 336.977 57.8182C342.25 54.7879 348.553 53.2727 355.886 53.2727C363.22 53.2727 369.508 54.7879 374.75 57.8182C380.023 60.8182 384.068 65.0303 386.886 70.4545C389.735 75.8485 391.159 82.1364 391.159 89.3182C391.159 96.4697 389.735 102.758 386.886 108.182C384.068 113.576 380.023 117.788 374.75 120.818C369.508 123.818 363.22 125.318 355.886 125.318ZM356.023 108.545C358.689 108.545 360.947 107.727 362.795 106.091C364.644 104.455 366.053 102.182 367.023 99.2727C368.023 96.3636 368.523 93 368.523 89.1818C368.523 85.303 368.023 81.9091 367.023 79C366.053 76.0909 364.644 73.8182 362.795 72.1818C360.947 70.5455 358.689 69.7273 356.023 69.7273C353.265 69.7273 350.932 70.5455 349.023 72.1818C347.144 73.8182 345.705 76.0909 344.705 79C343.735 81.9091 343.25 85.303 343.25 89.1818C343.25 93 343.735 96.3636 344.705 99.2727C345.705 102.182 347.144 104.455 349.023 106.091C350.932 107.727 353.265 108.545 356.023 108.545ZM422.591 105.682L422.682 79.1818H425.773L445.409 54.1818H470.591L441.409 90H435.545L422.591 105.682ZM402.545 124V30.9091H424.773V124H402.545ZM445.909 124L427.636 95L442.273 79.2273L471.591 124H445.909ZM517.955 54.1818V70.5455H473.909V54.1818H517.955ZM483.136 37.4545H505.364V102.045C505.364 103.409 505.576 104.515 506 105.364C506.455 106.182 507.106 106.773 507.955 107.136C508.803 107.47 509.818 107.636 511 107.636C511.848 107.636 512.742 107.561 513.682 107.409C514.652 107.227 515.379 107.076 515.864 106.955L519.227 123C518.167 123.303 516.667 123.682 514.727 124.136C512.818 124.591 510.53 124.879 507.864 125C502.652 125.242 498.182 124.636 494.455 123.182C490.758 121.697 487.924 119.394 485.955 116.273C484.015 113.152 483.076 109.227 483.136 104.5V37.4545ZM529.295 124V54.1818H550.886V66.9091H551.614C552.886 62.303 554.962 58.8788 557.841 56.6364C560.72 54.3636 564.068 53.2273 567.886 53.2273C568.917 53.2273 569.977 53.303 571.068 53.4545C572.159 53.5758 573.174 53.7727 574.114 54.0455V73.3636C573.053 73 571.659 72.7121 569.932 72.5C568.235 72.2879 566.72 72.1818 565.386 72.1818C562.75 72.1818 560.371 72.7727 558.25 73.9545C556.159 75.1061 554.508 76.7273 553.295 78.8182C552.114 80.8788 551.523 83.303 551.523 86.0909V124H529.295ZM600.227 125.182C595.773 125.182 591.818 124.439 588.364 122.955C584.939 121.439 582.227 119.167 580.227 116.136C578.258 113.076 577.273 109.242 577.273 104.636C577.273 100.758 577.955 97.4848 579.318 94.8182C580.682 92.1515 582.561 89.9848 584.955 88.3182C587.348 86.6515 590.106 85.3939 593.227 84.5455C596.348 83.6667 599.682 83.0758 603.227 82.7727C607.197 82.4091 610.394 82.0303 612.818 81.6364C615.242 81.2121 617 80.6212 618.091 79.8636C619.212 79.0758 619.773 77.9697 619.773 76.5455V76.3182C619.773 73.9848 618.97 72.1818 617.364 70.9091C615.758 69.6364 613.591 69 610.864 69C607.924 69 605.561 69.6364 603.773 70.9091C601.985 72.1818 600.848 73.9394 600.364 76.1818L579.864 75.4545C580.47 71.2121 582.03 67.4242 584.545 64.0909C587.091 60.7273 590.576 58.0909 595 56.1818C599.455 54.2424 604.803 53.2727 611.045 53.2727C615.5 53.2727 619.606 53.803 623.364 54.8636C627.121 55.8939 630.394 57.4091 633.182 59.4091C635.97 61.3788 638.121 63.803 639.636 66.6818C641.182 69.5606 641.955 72.8485 641.955 76.5455V124H621.045V114.273H620.5C619.258 116.636 617.667 118.636 615.727 120.273C613.818 121.909 611.561 123.136 608.955 123.955C606.379 124.773 603.47 125.182 600.227 125.182ZM607.091 110.636C609.485 110.636 611.636 110.152 613.545 109.182C615.485 108.212 617.03 106.879 618.182 105.182C619.333 103.455 619.909 101.455 619.909 99.1818V92.5455C619.273 92.8788 618.5 93.1818 617.591 93.4545C616.712 93.7273 615.742 93.9848 614.682 94.2273C613.621 94.4697 612.53 94.6818 611.409 94.8636C610.288 95.0455 609.212 95.2121 608.182 95.3636C606.091 95.697 604.303 96.2121 602.818 96.9091C601.364 97.6061 600.242 98.5152 599.455 99.6364C598.697 100.727 598.318 102.03 598.318 103.545C598.318 105.848 599.136 107.606 600.773 108.818C602.439 110.03 604.545 110.636 607.091 110.636ZM681.045 125C675.894 125 671.212 123.667 667 121C662.788 118.333 659.424 114.333 656.909 109C654.394 103.667 653.136 97.0455 653.136 89.1364C653.136 80.9242 654.439 74.1667 657.045 68.8636C659.652 63.5606 663.061 59.6364 667.273 57.0909C671.515 54.5455 676.076 53.2727 680.955 53.2727C684.621 53.2727 687.758 53.9091 690.364 55.1818C692.97 56.4242 695.121 58.0303 696.818 60C698.515 61.9697 699.803 64.0151 700.682 66.1364H701.136V30.9091H723.364V124H701.364V112.682H700.682C699.742 114.833 698.409 116.848 696.682 118.727C694.955 120.606 692.788 122.121 690.182 123.273C687.606 124.424 684.561 125 681.045 125ZM688.773 107.682C691.47 107.682 693.773 106.924 695.682 105.409C697.591 103.864 699.061 101.697 700.091 98.9091C701.121 96.1212 701.636 92.8485 701.636 89.0909C701.636 85.2727 701.121 81.9848 700.091 79.2273C699.091 76.4697 697.621 74.3485 695.682 72.8636C693.773 71.3788 691.47 70.6364 688.773 70.6364C686.015 70.6364 683.682 71.3939 681.773 72.9091C679.864 74.4242 678.409 76.5606 677.409 79.3182C676.439 82.0758 675.955 85.3333 675.955 89.0909C675.955 92.8485 676.455 96.1212 677.455 98.9091C678.455 101.697 679.894 103.864 681.773 105.409C683.682 106.924 686.015 107.682 688.773 107.682ZM770.057 125.318C762.754 125.318 756.451 123.879 751.148 121C745.875 118.091 741.814 113.955 738.966 108.591C736.148 103.197 734.739 96.7879 734.739 89.3636C734.739 82.1515 736.163 75.8485 739.011 70.4545C741.86 65.0303 745.875 60.8182 751.057 57.8182C756.239 54.7879 762.345 53.2727 769.375 53.2727C774.345 53.2727 778.89 54.0455 783.011 55.5909C787.133 57.1364 790.693 59.4242 793.693 62.4545C796.693 65.4848 799.027 69.2273 800.693 73.6818C802.36 78.1061 803.193 83.1818 803.193 88.9091V94.4545H742.511V81.5455H782.511C782.481 79.1818 781.92 77.0758 780.83 75.2273C779.739 73.3788 778.239 71.9394 776.33 70.9091C774.451 69.8485 772.284 69.3182 769.83 69.3182C767.345 69.3182 765.117 69.8788 763.148 71C761.178 72.0909 759.617 73.5909 758.466 75.5C757.314 77.3788 756.708 79.5151 756.648 81.9091V95.0455C756.648 97.8939 757.208 100.394 758.33 102.545C759.451 104.667 761.042 106.318 763.102 107.5C765.163 108.682 767.617 109.273 770.466 109.273C772.436 109.273 774.223 109 775.83 108.455C777.436 107.909 778.814 107.106 779.966 106.045C781.117 104.985 781.981 103.682 782.557 102.136L802.966 102.727C802.117 107.303 800.254 111.288 797.375 114.682C794.527 118.045 790.784 120.667 786.148 122.545C781.511 124.394 776.148 125.318 770.057 125.318Z" fill="black"/>
</svg>
